<svg xmlns="http://www.w3.org/2000/svg" version="1.1" xmlns:xlink="http://www.w3.org/1999/xlink" xmlns:svgjs="http://svgjs.dev/svgjs" width="1260" height="720" preserveAspectRatio="none" viewBox="0 0 1260 720"><g mask="url(&quot;#SvgjsMask1119&quot;)" fill="none"><rect width="1260" height="720" x="0" y="0" fill="url(&quot;#SvgjsLinearGradient1120&quot;)"></rect><g mask="url(&quot;#SvgjsMask1121&quot;)"><path d="M651 735L567 735L441 609L441 399L63 21" stroke-width="7" stroke="rgba(94, 174, 255, 1)"></path><path d="M640.5 735 a10.5 10.5 0 1 0 21 0 a10.5 10.5 0 1 0 -21 0zM52.5 21 a10.5 10.5 0 1 0 21 0 a10.5 10.5 0 1 0 -21 0z" fill="rgba(94, 174, 255, 1)"></path><path d="M483 315L903 315L1197 21L1239 21" stroke-width="7" stroke="rgba(94, 174, 255, 1)"></path><path d="M472.5 315 a10.5 10.5 0 1 0 21 0 a10.5 10.5 0 1 0 -21 0zM1228.5 21 a10.5 10.5 0 1 0 21 0 a10.5 10.5 0 1 0 -21 0z" fill="rgba(94, 174, 255, 1)"></path><path d="M1029 483L1155 357L1155 105L1197 63L1239 63" stroke-width="7" stroke="rgba(94, 174, 255, 1)"></path><path d="M1018.5 483 a10.5 10.5 0 1 0 21 0 a10.5 10.5 0 1 0 -21 0zM1228.5 63 a10.5 10.5 0 1 0 21 0 a10.5 10.5 0 1 0 -21 0z" fill="rgba(94, 174, 255, 1)"></path><path d="M1239 441L1239 105" stroke-width="7" stroke="rgba(94, 174, 255, 1)"></path><path d="M1228.5 441 a10.5 10.5 0 1 0 21 0 a10.5 10.5 0 1 0 -21 0zM1228.5 105 a10.5 10.5 0 1 0 21 0 a10.5 10.5 0 1 0 -21 0z" fill="rgba(94, 174, 255, 1)"></path><path d="M189 357L21 189L21 21" stroke-width="7" stroke="rgba(94, 174, 255, 1)"></path><path d="M178.5 357 a10.5 10.5 0 1 0 21 0 a10.5 10.5 0 1 0 -21 0zM10.5 21 a10.5 10.5 0 1 0 21 0 a10.5 10.5 0 1 0 -21 0z" fill="rgba(94, 174, 255, 1)"></path><path d="M651 609L945 609L1071 735L1239 735" stroke-width="7" stroke="rgba(94, 174, 255, 1)"></path><path d="M640.5 609 a10.5 10.5 0 1 0 21 0 a10.5 10.5 0 1 0 -21 0zM1228.5 735 a10.5 10.5 0 1 0 21 0 a10.5 10.5 0 1 0 -21 0z" fill="rgba(94, 174, 255, 1)"></path><path d="M609 147L1029 147L1155 21" stroke-width="7" stroke="rgba(94, 174, 255, 1)"></path><path d="M598.5 147 a10.5 10.5 0 1 0 21 0 a10.5 10.5 0 1 0 -21 0zM1144.5 21 a10.5 10.5 0 1 0 21 0 a10.5 10.5 0 1 0 -21 0z" fill="rgba(94, 174, 255, 1)"></path><path d="M777 441L483 441" stroke-width="7" stroke="rgba(94, 174, 255, 1)"></path><path d="M766.5 441 a10.5 10.5 0 1 0 21 0 a10.5 10.5 0 1 0 -21 0zM472.5 441 a10.5 10.5 0 1 0 21 0 a10.5 10.5 0 1 0 -21 0z" fill="rgba(94, 174, 255, 1)"></path><path d="M1029 315L945 315L735 525L483 525" stroke-width="7" stroke="rgba(94, 174, 255, 1)"></path><path d="M1018.5 315 a10.5 10.5 0 1 0 21 0 a10.5 10.5 0 1 0 -21 0zM472.5 525 a10.5 10.5 0 1 0 21 0 a10.5 10.5 0 1 0 -21 0z" fill="rgba(94, 174, 255, 1)"></path><path d="M483 693L315 693L21 399L21 231" stroke-width="7" stroke="rgba(94, 174, 255, 1)"></path><path d="M472.5 693 a10.5 10.5 0 1 0 21 0 a10.5 10.5 0 1 0 -21 0zM10.5 231 a10.5 10.5 0 1 0 21 0 a10.5 10.5 0 1 0 -21 0z" fill="rgba(94, 174, 255, 1)"></path><path d="M651 651L567 567L483 567" stroke-width="7" stroke="rgba(94, 174, 255, 1)"></path><path d="M640.5 651 a10.5 10.5 0 1 0 21 0 a10.5 10.5 0 1 0 -21 0zM472.5 567 a10.5 10.5 0 1 0 21 0 a10.5 10.5 0 1 0 -21 0z" fill="rgba(94, 174, 255, 1)"></path><path d="M525 147L231 147L105 21" stroke-width="7" stroke="rgba(94, 174, 255, 1)"></path><path d="M514.5 147 a10.5 10.5 0 1 0 21 0 a10.5 10.5 0 1 0 -21 0zM94.5 21 a10.5 10.5 0 1 0 21 0 a10.5 10.5 0 1 0 -21 0z" fill="rgba(94, 174, 255, 1)"></path><path d="M315 357L315 315L63 63" stroke-width="7" stroke="rgba(94, 174, 255, 1)"></path><path d="M304.5 357 a10.5 10.5 0 1 0 21 0 a10.5 10.5 0 1 0 -21 0zM52.5 63 a10.5 10.5 0 1 0 21 0 a10.5 10.5 0 1 0 -21 0z" fill="rgba(94, 174, 255, 1)"></path><path d="M441 315L525 399L819 399L861 357" stroke-width="7" stroke="rgba(94, 174, 255, 1)"></path><path d="M430.5 315 a10.5 10.5 0 1 0 21 0 a10.5 10.5 0 1 0 -21 0zM850.5 357 a10.5 10.5 0 1 0 21 0 a10.5 10.5 0 1 0 -21 0z" fill="rgba(94, 174, 255, 1)"></path><path d="M315 735L21 735" stroke-width="7" stroke="rgba(94, 174, 255, 1)"></path><path d="M304.5 735 a10.5 10.5 0 1 0 21 0 a10.5 10.5 0 1 0 -21 0zM10.5 735 a10.5 10.5 0 1 0 21 0 a10.5 10.5 0 1 0 -21 0z" fill="rgba(94, 174, 255, 1)"></path><path d="M735 357L819 357" stroke-width="7" stroke="rgba(94, 174, 255, 1)"></path><path d="M724.5 357 a10.5 10.5 0 1 0 21 0 a10.5 10.5 0 1 0 -21 0zM808.5 357 a10.5 10.5 0 1 0 21 0 a10.5 10.5 0 1 0 -21 0z" fill="rgba(94, 174, 255, 1)"></path><path d="M1071 63L1029 105L273 105" stroke-width="7" stroke="rgba(94, 174, 255, 1)"></path><path d="M1060.5 63 a10.5 10.5 0 1 0 21 0 a10.5 10.5 0 1 0 -21 0zM262.5 105 a10.5 10.5 0 1 0 21 0 a10.5 10.5 0 1 0 -21 0z" fill="rgba(94, 174, 255, 1)"></path><path d="M1113 357L1113 315L1029 231" stroke-width="7" stroke="rgba(94, 174, 255, 1)"></path><path d="M1102.5 357 a10.5 10.5 0 1 0 21 0 a10.5 10.5 0 1 0 -21 0zM1018.5 231 a10.5 10.5 0 1 0 21 0 a10.5 10.5 0 1 0 -21 0z" fill="rgba(94, 174, 255, 1)"></path><path d="M189 315L189 231L63 105" stroke-width="7" stroke="rgba(94, 174, 255, 1)"></path><path d="M178.5 315 a10.5 10.5 0 1 0 21 0 a10.5 10.5 0 1 0 -21 0zM52.5 105 a10.5 10.5 0 1 0 21 0 a10.5 10.5 0 1 0 -21 0z" fill="rgba(94, 174, 255, 1)"></path><path d="M693 357L525 357" stroke-width="7" stroke="rgba(94, 174, 255, 1)"></path><path d="M682.5 357 a10.5 10.5 0 1 0 21 0 a10.5 10.5 0 1 0 -21 0zM514.5 357 a10.5 10.5 0 1 0 21 0 a10.5 10.5 0 1 0 -21 0z" fill="rgba(94, 174, 255, 1)"></path><path d="M21 651L21 441" stroke-width="7" stroke="rgba(94, 174, 255, 1)"></path><path d="M10.5 651 a10.5 10.5 0 1 0 21 0 a10.5 10.5 0 1 0 -21 0zM10.5 441 a10.5 10.5 0 1 0 21 0 a10.5 10.5 0 1 0 -21 0z" fill="rgba(94, 174, 255, 1)"></path><path d="M399 21L147 21" stroke-width="7" stroke="rgba(94, 174, 255, 1)"></path><path d="M388.5 21 a10.5 10.5 0 1 0 21 0 a10.5 10.5 0 1 0 -21 0zM136.5 21 a10.5 10.5 0 1 0 21 0 a10.5 10.5 0 1 0 -21 0z" fill="rgba(94, 174, 255, 1)"></path><path d="M819 651L945 651L1029 735" stroke-width="7" stroke="rgba(94, 174, 255, 1)"></path><path d="M808.5 651 a10.5 10.5 0 1 0 21 0 a10.5 10.5 0 1 0 -21 0zM1018.5 735 a10.5 10.5 0 1 0 21 0 a10.5 10.5 0 1 0 -21 0z" fill="rgba(94, 174, 255, 1)"></path><path d="M945 231L903 273L357 273L273 189" stroke-width="7" stroke="rgba(94, 174, 255, 1)"></path><path d="M934.5 231 a10.5 10.5 0 1 0 21 0 a10.5 10.5 0 1 0 -21 0zM262.5 189 a10.5 10.5 0 1 0 21 0 a10.5 10.5 0 1 0 -21 0z" fill="rgba(94, 174, 255, 1)"></path><path d="M693 735L693 651" stroke-width="7" stroke="rgba(94, 174, 255, 1)"></path><path d="M682.5 735 a10.5 10.5 0 1 0 21 0 a10.5 10.5 0 1 0 -21 0zM682.5 651 a10.5 10.5 0 1 0 21 0 a10.5 10.5 0 1 0 -21 0z" fill="rgba(94, 174, 255, 1)"></path><path d="M399 483L147 483L63 399L63 273" stroke-width="7" stroke="rgba(94, 174, 255, 1)"></path><path d="M388.5 483 a10.5 10.5 0 1 0 21 0 a10.5 10.5 0 1 0 -21 0zM52.5 273 a10.5 10.5 0 1 0 21 0 a10.5 10.5 0 1 0 -21 0z" fill="rgba(94, 174, 255, 1)"></path><path d="M693 21L735 63L1029 63L1071 21L1113 21" stroke-width="7" stroke="rgba(94, 174, 255, 1)"></path><path d="M682.5 21 a10.5 10.5 0 1 0 21 0 a10.5 10.5 0 1 0 -21 0zM1102.5 21 a10.5 10.5 0 1 0 21 0 a10.5 10.5 0 1 0 -21 0z" fill="rgba(94, 174, 255, 1)"></path><path d="M861 735L903 693L945 693L987 735" stroke-width="7" stroke="rgba(94, 174, 255, 1)"></path><path d="M850.5 735 a10.5 10.5 0 1 0 21 0 a10.5 10.5 0 1 0 -21 0zM976.5 735 a10.5 10.5 0 1 0 21 0 a10.5 10.5 0 1 0 -21 0z" fill="rgba(94, 174, 255, 1)"></path><path d="M1239 567L1113 693" stroke-width="7" stroke="rgba(94, 174, 255, 1)"></path><path d="M1228.5 567 a10.5 10.5 0 1 0 21 0 a10.5 10.5 0 1 0 -21 0zM1102.5 693 a10.5 10.5 0 1 0 21 0 a10.5 10.5 0 1 0 -21 0z" fill="rgba(94, 174, 255, 1)"></path><path d="M525 21L441 21L399 63L273 63" stroke-width="7" stroke="rgba(94, 174, 255, 1)"></path><path d="M514.5 21 a10.5 10.5 0 1 0 21 0 a10.5 10.5 0 1 0 -21 0zM262.5 63 a10.5 10.5 0 1 0 21 0 a10.5 10.5 0 1 0 -21 0z" fill="rgba(94, 174, 255, 1)"></path><path d="M1113 567L1197 567" stroke-width="7" stroke="rgba(94, 174, 255, 1)"></path><path d="M1102.5 567 a10.5 10.5 0 1 0 21 0 a10.5 10.5 0 1 0 -21 0zM1186.5 567 a10.5 10.5 0 1 0 21 0 a10.5 10.5 0 1 0 -21 0z" fill="rgba(94, 174, 255, 1)"></path><path d="M903 441L987 357L1071 357" stroke-width="7" stroke="rgba(94, 174, 255, 1)"></path><path d="M892.5 441 a10.5 10.5 0 1 0 21 0 a10.5 10.5 0 1 0 -21 0zM1060.5 357 a10.5 10.5 0 1 0 21 0 a10.5 10.5 0 1 0 -21 0z" fill="rgba(94, 174, 255, 1)"></path><path d="M1071 651L1113 609L1155 609" stroke-width="7" stroke="rgba(94, 174, 255, 1)"></path><path d="M1060.5 651 a10.5 10.5 0 1 0 21 0 a10.5 10.5 0 1 0 -21 0zM1144.5 609 a10.5 10.5 0 1 0 21 0 a10.5 10.5 0 1 0 -21 0z" fill="rgba(94, 174, 255, 1)"></path><path d="M651 693L567 609L483 609" stroke-width="7" stroke="rgba(94, 174, 255, 1)"></path><path d="M640.5 693 a10.5 10.5 0 1 0 21 0 a10.5 10.5 0 1 0 -21 0zM472.5 609 a10.5 10.5 0 1 0 21 0 a10.5 10.5 0 1 0 -21 0z" fill="rgba(94, 174, 255, 1)"></path><path d="M777 525L819 483L987 483L1071 567L1071 609" stroke-width="7" stroke="rgba(94, 174, 255, 1)"></path><path d="M766.5 525 a10.5 10.5 0 1 0 21 0 a10.5 10.5 0 1 0 -21 0zM1060.5 609 a10.5 10.5 0 1 0 21 0 a10.5 10.5 0 1 0 -21 0z" fill="rgba(94, 174, 255, 1)"></path><path d="M189 525L315 651L441 651" stroke-width="7" stroke="rgba(94, 174, 255, 1)"></path><path d="M178.5 525 a10.5 10.5 0 1 0 21 0 a10.5 10.5 0 1 0 -21 0zM430.5 651 a10.5 10.5 0 1 0 21 0 a10.5 10.5 0 1 0 -21 0z" fill="rgba(94, 174, 255, 1)"></path><path d="M1197 693L1197 651L1239 609" stroke-width="7" stroke="rgba(94, 174, 255, 1)"></path><path d="M1186.5 693 a10.5 10.5 0 1 0 21 0 a10.5 10.5 0 1 0 -21 0zM1228.5 609 a10.5 10.5 0 1 0 21 0 a10.5 10.5 0 1 0 -21 0z" fill="rgba(94, 174, 255, 1)"></path><path d="M567 63L609 21L651 21L693 63" stroke-width="7" stroke="rgba(94, 174, 255, 1)"></path><path d="M556.5 63 a10.5 10.5 0 1 0 21 0 a10.5 10.5 0 1 0 -21 0zM682.5 63 a10.5 10.5 0 1 0 21 0 a10.5 10.5 0 1 0 -21 0z" fill="rgba(94, 174, 255, 1)"></path><path d="M735 693L777 735L819 735L861 693" stroke-width="7" stroke="rgba(94, 174, 255, 1)"></path><path d="M724.5 693 a10.5 10.5 0 1 0 21 0 a10.5 10.5 0 1 0 -21 0zM850.5 693 a10.5 10.5 0 1 0 21 0 a10.5 10.5 0 1 0 -21 0z" fill="rgba(94, 174, 255, 1)"></path><path d="M105 609L189 693" stroke-width="7" stroke="rgba(94, 174, 255, 1)"></path><path d="M94.5 609 a10.5 10.5 0 1 0 21 0 a10.5 10.5 0 1 0 -21 0zM178.5 693 a10.5 10.5 0 1 0 21 0 a10.5 10.5 0 1 0 -21 0z" fill="rgba(94, 174, 255, 1)"></path><path d="M105 567L63 525L63 483" stroke-width="7" stroke="rgba(94, 174, 255, 1)"></path><path d="M94.5 567 a10.5 10.5 0 1 0 21 0 a10.5 10.5 0 1 0 -21 0zM52.5 483 a10.5 10.5 0 1 0 21 0 a10.5 10.5 0 1 0 -21 0z" fill="rgba(94, 174, 255, 1)"></path><path d="M399 525L399 567L357 609L315 609L273 567L273 525" stroke-width="7" stroke="rgba(94, 174, 255, 1)"></path><path d="M388.5 525 a10.5 10.5 0 1 0 21 0 a10.5 10.5 0 1 0 -21 0zM262.5 525 a10.5 10.5 0 1 0 21 0 a10.5 10.5 0 1 0 -21 0z" fill="rgba(94, 174, 255, 1)"></path><path d="M483 189L315 189" stroke-width="7" stroke="rgba(94, 174, 255, 1)"></path><path d="M472.5 189 a10.5 10.5 0 1 0 21 0 a10.5 10.5 0 1 0 -21 0zM304.5 189 a10.5 10.5 0 1 0 21 0 a10.5 10.5 0 1 0 -21 0z" fill="rgba(94, 174, 255, 1)"></path><path d="M1029 609L1029 567L987 525L861 525" stroke-width="7" stroke="rgba(94, 174, 255, 1)"></path><path d="M1018.5 609 a10.5 10.5 0 1 0 21 0 a10.5 10.5 0 1 0 -21 0zM850.5 525 a10.5 10.5 0 1 0 21 0 a10.5 10.5 0 1 0 -21 0z" fill="rgba(94, 174, 255, 1)"></path><path d="M861 21L735 21" stroke-width="7" stroke="rgba(94, 174, 255, 1)"></path><path d="M850.5 21 a10.5 10.5 0 1 0 21 0 a10.5 10.5 0 1 0 -21 0zM724.5 21 a10.5 10.5 0 1 0 21 0 a10.5 10.5 0 1 0 -21 0z" fill="rgba(94, 174, 255, 1)"></path><path d="M903 231L945 189L987 189" stroke-width="7" stroke="rgba(94, 174, 255, 1)"></path><path d="M892.5 231 a10.5 10.5 0 1 0 21 0 a10.5 10.5 0 1 0 -21 0zM976.5 189 a10.5 10.5 0 1 0 21 0 a10.5 10.5 0 1 0 -21 0z" fill="rgba(94, 174, 255, 1)"></path><path d="M609 567L819 567" stroke-width="7" stroke="rgba(94, 174, 255, 1)"></path><path d="M598.5 567 a10.5 10.5 0 1 0 21 0 a10.5 10.5 0 1 0 -21 0zM808.5 567 a10.5 10.5 0 1 0 21 0 a10.5 10.5 0 1 0 -21 0z" fill="rgba(94, 174, 255, 1)"></path><path d="M693 189L735 231L861 231L903 189" stroke-width="7" stroke="rgba(94, 174, 255, 1)"></path><path d="M682.5 189 a10.5 10.5 0 1 0 21 0 a10.5 10.5 0 1 0 -21 0zM892.5 189 a10.5 10.5 0 1 0 21 0 a10.5 10.5 0 1 0 -21 0z" fill="rgba(94, 174, 255, 1)"></path><path d="M231 357L273 357L357 441L399 441" stroke-width="7" stroke="rgba(94, 174, 255, 1)"></path><path d="M220.5 357 a10.5 10.5 0 1 0 21 0 a10.5 10.5 0 1 0 -21 0zM388.5 441 a10.5 10.5 0 1 0 21 0 a10.5 10.5 0 1 0 -21 0z" fill="rgba(94, 174, 255, 1)"></path><path d="M1197 483L1155 525L1071 525" stroke-width="7" stroke="rgba(94, 174, 255, 1)"></path><path d="M1186.5 483 a10.5 10.5 0 1 0 21 0 a10.5 10.5 0 1 0 -21 0zM1060.5 525 a10.5 10.5 0 1 0 21 0 a10.5 10.5 0 1 0 -21 0z" fill="rgba(94, 174, 255, 1)"></path><path d="M1197 441L1197 105" stroke-width="7" stroke="rgba(94, 174, 255, 1)"></path><path d="M1186.5 441 a10.5 10.5 0 1 0 21 0 a10.5 10.5 0 1 0 -21 0zM1186.5 105 a10.5 10.5 0 1 0 21 0 a10.5 10.5 0 1 0 -21 0z" fill="rgba(94, 174, 255, 1)"></path><path d="M567 483L483 483" stroke-width="7" stroke="rgba(94, 174, 255, 1)"></path><path d="M556.5 483 a10.5 10.5 0 1 0 21 0 a10.5 10.5 0 1 0 -21 0zM472.5 483 a10.5 10.5 0 1 0 21 0 a10.5 10.5 0 1 0 -21 0z" fill="rgba(94, 174, 255, 1)"></path><path d="M63 693L147 693" stroke-width="7" stroke="rgba(94, 174, 255, 1)"></path><path d="M52.5 693 a10.5 10.5 0 1 0 21 0 a10.5 10.5 0 1 0 -21 0zM136.5 693 a10.5 10.5 0 1 0 21 0 a10.5 10.5 0 1 0 -21 0z" fill="rgba(94, 174, 255, 1)"></path><path d="M987 567L903 567" stroke-width="7" stroke="rgba(94, 174, 255, 1)"></path><path d="M976.5 567 a10.5 10.5 0 1 0 21 0 a10.5 10.5 0 1 0 -21 0zM892.5 567 a10.5 10.5 0 1 0 21 0 a10.5 10.5 0 1 0 -21 0z" fill="rgba(94, 174, 255, 1)"></path><path d="M63 567L63 651" stroke-width="7" stroke="rgba(94, 174, 255, 1)"></path><path d="M52.5 567 a10.5 10.5 0 1 0 21 0 a10.5 10.5 0 1 0 -21 0zM52.5 651 a10.5 10.5 0 1 0 21 0 a10.5 10.5 0 1 0 -21 0z" fill="rgba(94, 174, 255, 1)"></path><path d="M483 735L399 735" stroke-width="7" stroke="rgba(94, 174, 255, 1)"></path><path d="M472.5 735 a10.5 10.5 0 1 0 21 0 a10.5 10.5 0 1 0 -21 0zM388.5 735 a10.5 10.5 0 1 0 21 0 a10.5 10.5 0 1 0 -21 0z" fill="rgba(94, 174, 255, 1)"></path><path d="M987 21L903 21" stroke-width="7" stroke="rgba(94, 174, 255, 1)"></path><path d="M976.5 21 a10.5 10.5 0 1 0 21 0 a10.5 10.5 0 1 0 -21 0zM892.5 21 a10.5 10.5 0 1 0 21 0 a10.5 10.5 0 1 0 -21 0z" fill="rgba(94, 174, 255, 1)"></path></g></g><defs><mask id="SvgjsMask1119"><rect width="1260" height="720" fill="#ffffff"></rect></mask><linearGradient x1="50%" y1="0%" x2="50%" y2="100%" gradientUnits="userSpaceOnUse" id="SvgjsLinearGradient1120"><stop stop-color="#0e2a47" offset="0"></stop><stop stop-color="rgba(14, 53, 103, 1)" offset="1"></stop></linearGradient><mask id="SvgjsMask1121"><rect width="1260" height="720" fill="white"></rect><path d="M645.75 735 a5.25 5.25 0 1 0 10.5 0 a5.25 5.25 0 1 0 -10.5 0zM57.75 21 a5.25 5.25 0 1 0 10.5 0 a5.25 5.25 0 1 0 -10.5 0z" fill="black"></path><path d="M477.75 315 a5.25 5.25 0 1 0 10.5 0 a5.25 5.25 0 1 0 -10.5 0zM1233.75 21 a5.25 5.25 0 1 0 10.5 0 a5.25 5.25 0 1 0 -10.5 0z" fill="black"></path><path d="M1023.75 483 a5.25 5.25 0 1 0 10.5 0 a5.25 5.25 0 1 0 -10.5 0zM1233.75 63 a5.25 5.25 0 1 0 10.5 0 a5.25 5.25 0 1 0 -10.5 0z" fill="black"></path><path d="M1233.75 441 a5.25 5.25 0 1 0 10.5 0 a5.25 5.25 0 1 0 -10.5 0zM1233.75 105 a5.25 5.25 0 1 0 10.5 0 a5.25 5.25 0 1 0 -10.5 0z" fill="black"></path><path d="M183.75 357 a5.25 5.25 0 1 0 10.5 0 a5.25 5.25 0 1 0 -10.5 0zM15.75 21 a5.25 5.25 0 1 0 10.5 0 a5.25 5.25 0 1 0 -10.5 0z" fill="black"></path><path d="M645.75 609 a5.25 5.25 0 1 0 10.5 0 a5.25 5.25 0 1 0 -10.5 0zM1233.75 735 a5.25 5.25 0 1 0 10.5 0 a5.25 5.25 0 1 0 -10.5 0z" fill="black"></path><path d="M603.75 147 a5.25 5.25 0 1 0 10.5 0 a5.25 5.25 0 1 0 -10.5 0zM1149.75 21 a5.25 5.25 0 1 0 10.5 0 a5.25 5.25 0 1 0 -10.5 0z" fill="black"></path><path d="M771.75 441 a5.25 5.25 0 1 0 10.5 0 a5.25 5.25 0 1 0 -10.5 0zM477.75 441 a5.25 5.25 0 1 0 10.5 0 a5.25 5.25 0 1 0 -10.5 0z" fill="black"></path><path d="M1023.75 315 a5.25 5.25 0 1 0 10.5 0 a5.25 5.25 0 1 0 -10.5 0zM477.75 525 a5.25 5.25 0 1 0 10.5 0 a5.25 5.25 0 1 0 -10.5 0z" fill="black"></path><path d="M477.75 693 a5.25 5.25 0 1 0 10.5 0 a5.25 5.25 0 1 0 -10.5 0zM15.75 231 a5.25 5.25 0 1 0 10.5 0 a5.25 5.25 0 1 0 -10.5 0z" fill="black"></path><path d="M645.75 651 a5.25 5.25 0 1 0 10.5 0 a5.25 5.25 0 1 0 -10.5 0zM477.75 567 a5.25 5.25 0 1 0 10.5 0 a5.25 5.25 0 1 0 -10.5 0z" fill="black"></path><path d="M519.75 147 a5.25 5.25 0 1 0 10.5 0 a5.25 5.25 0 1 0 -10.5 0zM99.75 21 a5.25 5.25 0 1 0 10.5 0 a5.25 5.25 0 1 0 -10.5 0z" fill="black"></path><path d="M309.75 357 a5.25 5.25 0 1 0 10.5 0 a5.25 5.25 0 1 0 -10.5 0zM57.75 63 a5.25 5.25 0 1 0 10.5 0 a5.25 5.25 0 1 0 -10.5 0z" fill="black"></path><path d="M435.75 315 a5.25 5.25 0 1 0 10.5 0 a5.25 5.25 0 1 0 -10.5 0zM855.75 357 a5.25 5.25 0 1 0 10.5 0 a5.25 5.25 0 1 0 -10.5 0z" fill="black"></path><path d="M309.75 735 a5.25 5.25 0 1 0 10.5 0 a5.25 5.25 0 1 0 -10.5 0zM15.75 735 a5.25 5.25 0 1 0 10.5 0 a5.25 5.25 0 1 0 -10.5 0z" fill="black"></path><path d="M729.75 357 a5.25 5.25 0 1 0 10.5 0 a5.25 5.25 0 1 0 -10.5 0zM813.75 357 a5.25 5.25 0 1 0 10.5 0 a5.25 5.25 0 1 0 -10.5 0z" fill="black"></path><path d="M1065.75 63 a5.25 5.25 0 1 0 10.5 0 a5.25 5.25 0 1 0 -10.5 0zM267.75 105 a5.25 5.25 0 1 0 10.5 0 a5.25 5.25 0 1 0 -10.5 0z" fill="black"></path><path d="M1107.75 357 a5.25 5.25 0 1 0 10.5 0 a5.25 5.25 0 1 0 -10.5 0zM1023.75 231 a5.25 5.25 0 1 0 10.5 0 a5.25 5.25 0 1 0 -10.5 0z" fill="black"></path><path d="M183.75 315 a5.25 5.25 0 1 0 10.5 0 a5.25 5.25 0 1 0 -10.5 0zM57.75 105 a5.25 5.25 0 1 0 10.5 0 a5.25 5.25 0 1 0 -10.5 0z" fill="black"></path><path d="M687.75 357 a5.25 5.25 0 1 0 10.5 0 a5.25 5.25 0 1 0 -10.5 0zM519.75 357 a5.25 5.25 0 1 0 10.5 0 a5.25 5.25 0 1 0 -10.5 0z" fill="black"></path><path d="M15.75 651 a5.25 5.25 0 1 0 10.5 0 a5.25 5.25 0 1 0 -10.5 0zM15.75 441 a5.25 5.25 0 1 0 10.5 0 a5.25 5.25 0 1 0 -10.5 0z" fill="black"></path><path d="M393.75 21 a5.25 5.25 0 1 0 10.5 0 a5.25 5.25 0 1 0 -10.5 0zM141.75 21 a5.25 5.25 0 1 0 10.5 0 a5.25 5.25 0 1 0 -10.5 0z" fill="black"></path><path d="M813.75 651 a5.25 5.25 0 1 0 10.5 0 a5.25 5.25 0 1 0 -10.5 0zM1023.75 735 a5.25 5.25 0 1 0 10.5 0 a5.25 5.25 0 1 0 -10.5 0z" fill="black"></path><path d="M939.75 231 a5.25 5.25 0 1 0 10.5 0 a5.25 5.25 0 1 0 -10.5 0zM267.75 189 a5.25 5.25 0 1 0 10.5 0 a5.25 5.25 0 1 0 -10.5 0z" fill="black"></path><path d="M687.75 735 a5.25 5.25 0 1 0 10.5 0 a5.25 5.25 0 1 0 -10.5 0zM687.75 651 a5.25 5.25 0 1 0 10.5 0 a5.25 5.25 0 1 0 -10.5 0z" fill="black"></path><path d="M393.75 483 a5.25 5.25 0 1 0 10.5 0 a5.25 5.25 0 1 0 -10.5 0zM57.75 273 a5.25 5.25 0 1 0 10.5 0 a5.25 5.25 0 1 0 -10.5 0z" fill="black"></path><path d="M687.75 21 a5.25 5.25 0 1 0 10.5 0 a5.25 5.25 0 1 0 -10.5 0zM1107.75 21 a5.25 5.25 0 1 0 10.5 0 a5.25 5.25 0 1 0 -10.5 0z" fill="black"></path><path d="M855.75 735 a5.25 5.25 0 1 0 10.5 0 a5.25 5.25 0 1 0 -10.5 0zM981.75 735 a5.25 5.25 0 1 0 10.5 0 a5.25 5.25 0 1 0 -10.5 0z" fill="black"></path><path d="M1233.75 567 a5.25 5.25 0 1 0 10.5 0 a5.25 5.25 0 1 0 -10.5 0zM1107.75 693 a5.25 5.25 0 1 0 10.5 0 a5.25 5.25 0 1 0 -10.5 0z" fill="black"></path><path d="M519.75 21 a5.25 5.25 0 1 0 10.5 0 a5.25 5.25 0 1 0 -10.5 0zM267.75 63 a5.25 5.25 0 1 0 10.5 0 a5.25 5.25 0 1 0 -10.5 0z" fill="black"></path><path d="M1107.75 567 a5.25 5.25 0 1 0 10.5 0 a5.25 5.25 0 1 0 -10.5 0zM1191.75 567 a5.25 5.25 0 1 0 10.5 0 a5.25 5.25 0 1 0 -10.5 0z" fill="black"></path><path d="M897.75 441 a5.25 5.25 0 1 0 10.5 0 a5.25 5.25 0 1 0 -10.5 0zM1065.75 357 a5.25 5.25 0 1 0 10.5 0 a5.25 5.25 0 1 0 -10.5 0z" fill="black"></path><path d="M1065.75 651 a5.25 5.25 0 1 0 10.5 0 a5.25 5.25 0 1 0 -10.5 0zM1149.75 609 a5.25 5.25 0 1 0 10.5 0 a5.25 5.25 0 1 0 -10.5 0z" fill="black"></path><path d="M645.75 693 a5.25 5.25 0 1 0 10.5 0 a5.25 5.25 0 1 0 -10.5 0zM477.75 609 a5.25 5.25 0 1 0 10.5 0 a5.25 5.25 0 1 0 -10.5 0z" fill="black"></path><path d="M771.75 525 a5.25 5.25 0 1 0 10.5 0 a5.25 5.25 0 1 0 -10.5 0zM1065.75 609 a5.25 5.25 0 1 0 10.5 0 a5.25 5.25 0 1 0 -10.5 0z" fill="black"></path><path d="M183.75 525 a5.25 5.25 0 1 0 10.5 0 a5.25 5.25 0 1 0 -10.5 0zM435.75 651 a5.25 5.25 0 1 0 10.5 0 a5.25 5.25 0 1 0 -10.5 0z" fill="black"></path><path d="M1191.75 693 a5.25 5.25 0 1 0 10.5 0 a5.25 5.25 0 1 0 -10.5 0zM1233.75 609 a5.25 5.25 0 1 0 10.5 0 a5.25 5.25 0 1 0 -10.5 0z" fill="black"></path><path d="M561.75 63 a5.25 5.25 0 1 0 10.5 0 a5.25 5.25 0 1 0 -10.5 0zM687.75 63 a5.25 5.25 0 1 0 10.5 0 a5.25 5.25 0 1 0 -10.5 0z" fill="black"></path><path d="M729.75 693 a5.25 5.25 0 1 0 10.5 0 a5.25 5.25 0 1 0 -10.5 0zM855.75 693 a5.25 5.25 0 1 0 10.5 0 a5.25 5.25 0 1 0 -10.5 0z" fill="black"></path><path d="M99.75 609 a5.25 5.25 0 1 0 10.5 0 a5.25 5.25 0 1 0 -10.5 0zM183.75 693 a5.25 5.25 0 1 0 10.5 0 a5.25 5.25 0 1 0 -10.5 0z" fill="black"></path><path d="M99.75 567 a5.25 5.25 0 1 0 10.5 0 a5.25 5.25 0 1 0 -10.5 0zM57.75 483 a5.25 5.25 0 1 0 10.5 0 a5.25 5.25 0 1 0 -10.5 0z" fill="black"></path><path d="M393.75 525 a5.25 5.25 0 1 0 10.5 0 a5.25 5.25 0 1 0 -10.5 0zM267.75 525 a5.25 5.25 0 1 0 10.5 0 a5.25 5.25 0 1 0 -10.5 0z" fill="black"></path><path d="M477.75 189 a5.25 5.25 0 1 0 10.5 0 a5.25 5.25 0 1 0 -10.5 0zM309.75 189 a5.25 5.25 0 1 0 10.5 0 a5.25 5.25 0 1 0 -10.5 0z" fill="black"></path><path d="M1023.75 609 a5.25 5.25 0 1 0 10.5 0 a5.25 5.25 0 1 0 -10.5 0zM855.75 525 a5.25 5.25 0 1 0 10.5 0 a5.25 5.25 0 1 0 -10.5 0z" fill="black"></path><path d="M855.75 21 a5.25 5.25 0 1 0 10.5 0 a5.25 5.25 0 1 0 -10.5 0zM729.75 21 a5.25 5.25 0 1 0 10.5 0 a5.25 5.25 0 1 0 -10.5 0z" fill="black"></path><path d="M897.75 231 a5.25 5.25 0 1 0 10.5 0 a5.25 5.25 0 1 0 -10.5 0zM981.75 189 a5.25 5.25 0 1 0 10.5 0 a5.25 5.25 0 1 0 -10.5 0z" fill="black"></path><path d="M603.75 567 a5.25 5.25 0 1 0 10.5 0 a5.25 5.25 0 1 0 -10.5 0zM813.75 567 a5.25 5.25 0 1 0 10.5 0 a5.25 5.25 0 1 0 -10.5 0z" fill="black"></path><path d="M687.75 189 a5.25 5.25 0 1 0 10.5 0 a5.25 5.25 0 1 0 -10.5 0zM897.75 189 a5.25 5.25 0 1 0 10.5 0 a5.25 5.25 0 1 0 -10.5 0z" fill="black"></path><path d="M225.75 357 a5.25 5.25 0 1 0 10.5 0 a5.25 5.25 0 1 0 -10.5 0zM393.75 441 a5.25 5.25 0 1 0 10.5 0 a5.25 5.25 0 1 0 -10.5 0z" fill="black"></path><path d="M1191.75 483 a5.25 5.25 0 1 0 10.5 0 a5.25 5.25 0 1 0 -10.5 0zM1065.75 525 a5.25 5.25 0 1 0 10.5 0 a5.25 5.25 0 1 0 -10.5 0z" fill="black"></path><path d="M1191.75 441 a5.25 5.25 0 1 0 10.5 0 a5.25 5.25 0 1 0 -10.5 0zM1191.75 105 a5.25 5.25 0 1 0 10.5 0 a5.25 5.25 0 1 0 -10.5 0z" fill="black"></path><path d="M561.75 483 a5.25 5.25 0 1 0 10.5 0 a5.25 5.25 0 1 0 -10.5 0zM477.75 483 a5.25 5.25 0 1 0 10.5 0 a5.25 5.25 0 1 0 -10.5 0z" fill="black"></path><path d="M57.75 693 a5.25 5.25 0 1 0 10.5 0 a5.25 5.25 0 1 0 -10.5 0zM141.75 693 a5.25 5.25 0 1 0 10.5 0 a5.25 5.25 0 1 0 -10.5 0z" fill="black"></path><path d="M981.75 567 a5.25 5.25 0 1 0 10.5 0 a5.25 5.25 0 1 0 -10.5 0zM897.75 567 a5.25 5.25 0 1 0 10.5 0 a5.25 5.25 0 1 0 -10.5 0z" fill="black"></path><path d="M57.75 567 a5.25 5.25 0 1 0 10.5 0 a5.25 5.25 0 1 0 -10.5 0zM57.75 651 a5.25 5.25 0 1 0 10.5 0 a5.25 5.25 0 1 0 -10.5 0z" fill="black"></path><path d="M477.75 735 a5.25 5.25 0 1 0 10.5 0 a5.25 5.25 0 1 0 -10.5 0zM393.75 735 a5.25 5.25 0 1 0 10.5 0 a5.25 5.25 0 1 0 -10.5 0z" fill="black"></path><path d="M981.75 21 a5.25 5.25 0 1 0 10.5 0 a5.25 5.25 0 1 0 -10.5 0zM897.75 21 a5.25 5.25 0 1 0 10.5 0 a5.25 5.25 0 1 0 -10.5 0z" fill="black"></path></mask></defs></svg>