<svg xmlns="http://www.w3.org/2000/svg" version="1.1" xmlns:xlink="http://www.w3.org/1999/xlink" xmlns:svgjs="http://svgjs.dev/svgjs" width="1440" height="560" preserveAspectRatio="none" viewBox="0 0 1440 560"><g mask="url(&quot;#SvgjsMask1004&quot;)" fill="none"><rect width="1440" height="560" x="0" y="0" fill="rgba(17, 61, 107, 1)"></rect><path d="M720 731.42C833.46 729.34 917.27 637.78 997.51 557.51 1077.68 477.27 1160.74 392.95 1171.11 280 1182.33 157.94 1141.26 32.07 1053.61-53.61 966.77-138.51 841.41-163.77 720-161.05 601.68-158.4 486.69-120.62 400.91-39.09 312.88 44.58 249.75 158.72 256 280 262.02 396.76 348.41 486.24 432.22 567.78 514.44 647.78 605.32 733.49 720 731.42" fill="#1c538e"></path><path d="M720 572.09C793.41 570.75 847.64 511.51 899.56 459.56 951.44 407.64 1005.19 353.08 1011.9 280 1019.16 201.02 992.58 119.58 935.86 64.14 879.68 9.2 798.56-7.14 720-5.38 643.44-3.67 569.04 20.77 513.53 73.53 456.57 127.67 415.72 201.53 419.77 280 423.66 355.55 479.56 413.45 533.79 466.21 586.99 517.97 645.79 573.44 720 572.09" fill="#2774c6"></path><path d="M720 412.77C753.37 412.16 778.02 385.23 801.62 361.62 825.2 338.02 849.63 313.22 852.68 280 855.98 244.1 843.9 207.08 818.12 181.88 792.58 156.91 755.71 149.48 720 150.28 685.2 151.06 651.38 162.17 626.15 186.15 600.26 210.76 581.69 244.33 583.53 280 585.3 314.34 610.71 340.66 635.36 364.64 659.54 388.17 686.27 413.38 720 412.77" fill="#488fdb"></path></g><defs><mask id="SvgjsMask1004"><rect width="1440" height="560" fill="#ffffff"></rect></mask></defs></svg>